<svg width="41" height="41" viewBox="0 0 41 41" fill="none" xmlns="http://www.w3.org/2000/svg">
<g clip-path="url(#clip0_542_6413)">
<path fill-rule="evenodd" clip-rule="evenodd" d="M1.5687 17.4511C1.24383 17.4511 0.980469 17.1877 0.980469 16.8628C0.980469 16.538 1.24383 16.2746 1.5687 16.2746C1.89358 16.2746 2.15694 16.538 2.15694 16.8628C2.15694 17.1877 1.89358 17.4511 1.5687 17.4511ZM40.3922 17.4511C40.0674 17.4511 39.804 17.1877 39.804 16.8628C39.804 16.538 40.0674 16.2746 40.3922 16.2746C40.7171 16.2746 40.9805 16.538 40.9805 16.8628C40.9805 17.1877 40.7171 17.4511 40.3922 17.4511ZM40.3922 9.21576C40.0674 9.21576 39.804 8.9524 39.804 8.62753C39.804 8.30266 40.0674 8.03929 40.3922 8.03929C40.7171 8.03929 40.9805 8.30266 40.9805 8.62753C40.9805 8.9524 40.7171 9.21576 40.3922 9.21576ZM40.3922 25.6864C40.0674 25.6864 39.804 25.423 39.804 25.0981C39.804 24.7732 40.0674 24.5099 40.3922 24.5099C40.7171 24.5099 40.9805 24.7732 40.9805 25.0981C40.9805 25.423 40.7171 25.6864 40.3922 25.6864ZM40.3922 33.9216C40.0674 33.9216 39.804 33.6583 39.804 33.3334C39.804 33.0085 40.0674 32.7452 40.3922 32.7452C40.7171 32.7452 40.9805 33.0085 40.9805 33.3334C40.9805 33.6583 40.7171 33.9216 40.3922 33.9216ZM24.5099 1.5687C24.5099 1.24383 24.7732 0.980469 25.0981 0.980469C25.423 0.980469 25.6864 1.24383 25.6864 1.5687C25.6864 1.89357 25.423 2.15694 25.0981 2.15694C24.7732 2.15694 24.5099 1.89357 24.5099 1.5687ZM32.7452 1.5687C32.7452 1.24383 33.0085 0.980469 33.3334 0.980469C33.6583 0.980469 33.9216 1.24383 33.9216 1.5687C33.9216 1.89357 33.6583 2.15694 33.3334 2.15694C33.0085 2.15694 32.7452 1.89357 32.7452 1.5687ZM16.2746 1.5687C16.2746 1.24383 16.5379 0.980469 16.8628 0.980469C17.1877 0.980469 17.4511 1.24383 17.4511 1.5687C17.4511 1.89357 17.1877 2.15694 16.8628 2.15694C16.5379 2.15694 16.2746 1.89357 16.2746 1.5687ZM8.03929 1.5687C8.03929 1.24383 8.30265 0.980469 8.62753 0.980469C8.9524 0.980469 9.21576 1.24383 9.21576 1.5687C9.21576 1.89357 8.9524 2.15694 8.62753 2.15694C8.30265 2.15694 8.03929 1.89357 8.03929 1.5687ZM24.5099 40.3922C24.5099 40.0674 24.7732 39.804 25.0981 39.804C25.423 39.804 25.6864 40.0674 25.6864 40.3922C25.6864 40.7171 25.423 40.9805 25.0981 40.9805C24.7732 40.9805 24.5099 40.7171 24.5099 40.3922ZM32.7452 40.3922C32.7452 40.0674 33.0085 39.804 33.3334 39.804C33.6583 39.804 33.9216 40.0674 33.9216 40.3922C33.9216 40.7171 33.6583 40.9805 33.3334 40.9805C33.0085 40.9805 32.7452 40.7171 32.7452 40.3922ZM16.2746 40.3922C16.2746 40.0674 16.5379 39.804 16.8628 39.804C17.1877 39.804 17.4511 40.0674 17.4511 40.3922C17.4511 40.7171 17.1877 40.9805 16.8628 40.9805C16.5379 40.9805 16.2746 40.7171 16.2746 40.3922ZM8.03929 40.3922C8.03929 40.0674 8.30265 39.804 8.62753 39.804C8.9524 39.804 9.21576 40.0674 9.21576 40.3922C9.21576 40.7171 8.9524 40.9805 8.62753 40.9805C8.30265 40.9805 8.03929 40.7171 8.03929 40.3922ZM1.5687 9.21576C1.24383 9.21576 0.980469 8.9524 0.980469 8.62753C0.980469 8.30266 1.24383 8.03929 1.5687 8.03929C1.89358 8.03929 2.15694 8.30266 2.15694 8.62753C2.15694 8.9524 1.89358 9.21576 1.5687 9.21576ZM1.5687 25.6864C1.24383 25.6864 0.980469 25.423 0.980469 25.0981C0.980469 24.7732 1.24383 24.5099 1.5687 24.5099C1.89358 24.5099 2.15694 24.7732 2.15694 25.0981C2.15694 25.423 1.89358 25.6864 1.5687 25.6864ZM1.5687 33.9216C1.24383 33.9216 0.980469 33.6583 0.980469 33.3334C0.980469 33.0085 1.24383 32.7452 1.5687 32.7452C1.89358 32.7452 2.15694 33.0085 2.15694 33.3334C2.15694 33.6583 1.89358 33.9216 1.5687 33.9216ZM8.62753 18.0393C7.97778 18.0393 7.45106 17.5126 7.45106 16.8628C7.45106 16.2131 7.97778 15.6864 8.62753 15.6864C9.27727 15.6864 9.804 16.2131 9.804 16.8628C9.804 17.5126 9.27727 18.0393 8.62753 18.0393ZM33.3334 18.0393C32.6837 18.0393 32.1569 17.5126 32.1569 16.8628C32.1569 16.2131 32.6837 15.6864 33.3334 15.6864C33.9832 15.6864 34.5099 16.2131 34.5099 16.8628C34.5099 17.5126 33.9832 18.0393 33.3334 18.0393ZM25.0981 9.804C24.4484 9.804 23.9216 9.27728 23.9216 8.62753C23.9216 7.97778 24.4484 7.45106 25.0981 7.45106C25.7479 7.45106 26.2746 7.97778 26.2746 8.62753C26.2746 9.27728 25.7479 9.804 25.0981 9.804ZM25.0981 34.5099C24.4484 34.5099 23.9216 33.9832 23.9216 33.3334C23.9216 32.6837 24.4484 32.1569 25.0981 32.1569C25.7479 32.1569 26.2746 32.6837 26.2746 33.3334C26.2746 33.9832 25.7479 34.5099 25.0981 34.5099ZM16.8628 9.804C16.2131 9.804 15.6864 9.27728 15.6864 8.62753C15.6864 7.97778 16.2131 7.45106 16.8628 7.45106C17.5126 7.45106 18.0393 7.97778 18.0393 8.62753C18.0393 9.27728 17.5126 9.804 16.8628 9.804ZM25.0981 18.6275C24.1235 18.6275 23.3334 17.8374 23.3334 16.8628C23.3334 15.8882 24.1235 15.0981 25.0981 15.0981C26.0727 15.0981 26.8628 15.8882 26.8628 16.8628C26.8628 17.8374 26.0727 18.6275 25.0981 18.6275ZM16.8628 18.6275C15.8882 18.6275 15.0981 17.8374 15.0981 16.8628C15.0981 15.8882 15.8882 15.0981 16.8628 15.0981C17.8374 15.0981 18.6275 15.8882 18.6275 16.8628C18.6275 17.8374 17.8374 18.6275 16.8628 18.6275ZM25.0981 26.8628C24.1235 26.8628 23.3334 26.0727 23.3334 25.0981C23.3334 24.1235 24.1235 23.3334 25.0981 23.3334C26.0727 23.3334 26.8628 24.1235 26.8628 25.0981C26.8628 26.0727 26.0727 26.8628 25.0981 26.8628ZM16.8628 26.8628C15.8882 26.8628 15.0981 26.0727 15.0981 25.0981C15.0981 24.1235 15.8882 23.3334 16.8628 23.3334C17.8374 23.3334 18.6275 24.1235 18.6275 25.0981C18.6275 26.0727 17.8374 26.8628 16.8628 26.8628ZM16.8628 34.5099C16.2131 34.5099 15.6864 33.9832 15.6864 33.3334C15.6864 32.6837 16.2131 32.1569 16.8628 32.1569C17.5126 32.1569 18.0393 32.6837 18.0393 33.3334C18.0393 33.9832 17.5126 34.5099 16.8628 34.5099ZM8.62753 9.21576C8.30265 9.21576 8.03929 8.9524 8.03929 8.62753C8.03929 8.30266 8.30265 8.03929 8.62753 8.03929C8.9524 8.03929 9.21576 8.30266 9.21576 8.62753C9.21576 8.9524 8.9524 9.21576 8.62753 9.21576ZM33.3334 9.21576C33.0085 9.21576 32.7452 8.9524 32.7452 8.62753C32.7452 8.30266 33.0085 8.03929 33.3334 8.03929C33.6583 8.03929 33.9216 8.30266 33.9216 8.62753C33.9216 8.9524 33.6583 9.21576 33.3334 9.21576ZM8.62753 26.2746C7.97778 26.2746 7.45106 25.7479 7.45106 25.0981C7.45106 24.4484 7.97778 23.9216 8.62753 23.9216C9.27727 23.9216 9.804 24.4484 9.804 25.0981C9.804 25.7479 9.27727 26.2746 8.62753 26.2746ZM33.3334 26.2746C32.6837 26.2746 32.1569 25.7479 32.1569 25.0981C32.1569 24.4484 32.6837 23.9216 33.3334 23.9216C33.9832 23.9216 34.5099 24.4484 34.5099 25.0981C34.5099 25.7479 33.9832 26.2746 33.3334 26.2746ZM8.62753 33.9216C8.30265 33.9216 8.03929 33.6583 8.03929 33.3334C8.03929 33.0085 8.30265 32.7452 8.62753 32.7452C8.9524 32.7452 9.21576 33.0085 9.21576 33.3334C9.21576 33.6583 8.9524 33.9216 8.62753 33.9216ZM33.3334 33.9216C33.0085 33.9216 32.7452 33.6583 32.7452 33.3334C32.7452 33.0085 33.0085 32.7452 33.3334 32.7452C33.6583 32.7452 33.9216 33.0085 33.9216 33.3334C33.9216 33.6583 33.6583 33.9216 33.3334 33.9216Z" fill="#2B3A3C"/>
</g>
<defs>
<clipPath id="clip0_542_6413">
<rect width="40" height="40" fill="white" transform="translate(0.980469 0.980469)"/>
</clipPath>
</defs>
</svg>
